├óΓÇôΓÇ£├óΓÇôΓÇ£├óΓÇôΓÇ£├óΓÇôΓÇ£├óΓÇôΓÇ£├óΓÇôΓÇÖ├óΓÇôΓÇÿ  F i L E   i N F O  ├óΓÇôΓÇÿ├óΓÇôΓÇÖ├óΓÇôΓÇ£├óΓÇôΓÇ£├óΓÇôΓÇ£├óΓÇôΓÇ£├óΓÇôΓÇ£├óΓÇôΓÇ£├óΓÇôΓÇ£├óΓÇôΓÇ£├óΓÇôΓÇ£├óΓÇôΓÇ£├óΓÇôΓÇ£├óΓÇôΓÇ£├óΓÇôΓÇ£├óΓÇôΓÇ£├óΓÇôΓÇ£├óΓÇôΓÇ£├óΓÇôΓÇ£├óΓÇôΓÇ£├óΓÇôΓÇ£├óΓÇôΓÇ£├óΓÇôΓÇ£├óΓÇôΓÇ£├óΓÇôΓÇ£├óΓÇôΓÇ£├óΓÇôΓÇ£├óΓÇôΓÇ£├óΓÇôΓÇ£├óΓÇôΓÇ£├óΓÇôΓÇ£├óΓÇôΓÇ£├óΓÇôΓÇ£├óΓÇôΓÇ£├óΓÇôΓÇ£├óΓÇôΓÇ£├óΓÇôΓÇ£├óΓÇôΓÇ£├óΓÇôΓÇ£├óΓÇôΓÇ£├óΓÇôΓÇ£├óΓÇôΓÇ£├óΓÇôΓÇ£├óΓÇôΓÇ£├óΓÇôΓÇ£├óΓÇôΓÇ£├óΓÇôΓÇ£├óΓÇôΓÇ£├óΓÇôΓÇ£├óΓÇôΓÇ£├óΓÇôΓÇ£├óΓÇôΓÇ£├óΓÇôΓÇ£├óΓÇôΓÇ£

Format                           : AVI                                       
Format/Info                      : Audio Video Interleave
File size                        : 59.1 MiB
Duration                         : 3mn 34s
Overall bit rate                 : 2 309 Kbps
Writing application              : VirtualDubMod 1.5.10.2 (build 2540/release)
Writing library                  : VirtualDubMod build 2540/release

Video
ID                               : 0
Format                           : MPEG-4 Visual
Format profile                   : Advanced Simple@L5
Format settings, BVOP            : Yes
Format settings, QPel            : No
Format settings, GMC             : No warppoints
Format settings, Matrix          : Default (H.263)
Muxing mode                      : Packed bitstream
Codec ID                         : XVID
Codec ID/Hint                    : XviD
Duration                         : 3mn 34s
Bit rate                         : 2 105 Kbps
Width                            : 608 pixels
Height                           : 448 pixels
Display aspect ratio             : 4:3
Frame rate                       : 29.970 fps
Color space                      : YUV
Chroma subsampling               : 4:2:0
Bit depth                        : 8 bits
Scan type                        : Progressive
Bits/(Pixel*Frame)               : 0.258
Stream size                      : 53.9 MiB (91%)
Writing library                  : XviD 1.1.0 (UTC 2005-11-22)

Audio
ID                               : 1
Format                           : MPEG Audio
Format version                   : Version 1
Format profile                   : Layer 3
Codec ID                         : 55
Codec ID/Hint                    : MP3
Duration                         : 3mn 34s
Bit rate mode                    : Constant
Bit rate                         : 192 Kbps
Channel(s)                       : 2 channels
Sampling rate                    : 44.1 KHz
Video delay                      : 2ms
Stream size                      : 4.91 MiB (8%)
Alignment                        : Split accross interleaves
Interleave, duration             : 33 ms (1.00 video frame)
Interleave, preload duration     : 500 ms

├óΓÇôΓÇÿ├óΓÇôΓÇÖ├óΓÇôΓÇ£├óΓÇôΓÇ£├óΓÇôΓÇ£├óΓÇôΓÇ£├óΓÇôΓÇ£├óΓÇôΓÇ£├óΓÇôΓÇ£├óΓÇôΓÇ£├óΓÇôΓÇ£├óΓÇôΓÇ£├óΓÇôΓÇ£├óΓÇôΓÇ£├óΓÇôΓÇ£├óΓÇôΓÇ£├óΓÇôΓÇ£├óΓÇôΓÇ£├óΓÇôΓÇ£├óΓÇôΓÇ£├óΓÇôΓÇ£├óΓÇôΓÇ£├óΓÇôΓÇ£├óΓÇôΓÇ£├óΓÇôΓÇ£├óΓÇôΓÇ£├óΓÇôΓÇ£├óΓÇôΓÇ£├óΓÇôΓÇ£├óΓÇôΓÇ£ SCREENSHOTS ├óΓÇôΓÇÿ├óΓÇôΓÇÖ├óΓÇôΓÇ£├óΓÇôΓÇ£├óΓÇôΓÇ£├óΓÇôΓÇ£├óΓÇôΓÇ£├óΓÇôΓÇ£├óΓÇôΓÇ£├óΓÇôΓÇ£├óΓÇôΓÇ£├óΓÇôΓÇ£├óΓÇôΓÇ£├óΓÇôΓÇ£├óΓÇôΓÇ£├óΓÇôΓÇ£├óΓÇôΓÇ£├óΓÇôΓÇ£├óΓÇôΓÇ£├óΓÇôΓÇ£├óΓÇôΓÇ£├óΓÇôΓÇ£├óΓÇôΓÇ£├óΓÇôΓÇ£├óΓÇôΓÇ£├óΓÇôΓÇ£├óΓÇôΓÇ£├óΓÇôΓÇ£├óΓÇôΓÇ£├óΓÇôΓÇ£├óΓÇôΓÇ£├óΓÇôΓÇ£├óΓÇôΓÇ£├óΓÇôΓÇ£├óΓÇôΓÇ£├óΓÇôΓÇ£├óΓÇôΓÇ£├óΓÇôΓÇ£├óΓÇôΓÇ£├óΓÇôΓÇ£
 
      http://img203.imageshack.us/i/vlcsnap2010060513h08m25.png/
      http://img227.imageshack.us/i/vlcsnap2010060513h08m07.png/
      http://img227.imageshack.us/i/vlcsnap2010060513h10m14.png/

├óΓÇôΓÇ£├óΓÇôΓÇ£├óΓÇôΓÇ£├óΓÇôΓÇ£├óΓÇôΓÇ£├óΓÇôΓÇ£├óΓÇôΓÇ£├óΓÇôΓÇ£├óΓÇôΓÇ£├óΓÇôΓÇ£├óΓÇôΓÇ£├óΓÇôΓÇ£├óΓÇôΓÇ£├óΓÇôΓÇ£├óΓÇôΓÇ£├óΓÇôΓÇ£├óΓÇôΓÇ£├óΓÇôΓÇ£├óΓÇôΓÇ£├óΓÇôΓÇ£├óΓÇôΓÇ£├óΓÇôΓÇ£├óΓÇôΓÇ£├óΓÇôΓÇ£├óΓÇôΓÇ£├óΓÇôΓÇ£├óΓÇôΓÇ£├óΓÇôΓÇ£├óΓÇôΓÇ£├óΓÇôΓÇ£├óΓÇôΓÇ£├óΓÇôΓÇ£├óΓÇôΓÇ£├óΓÇôΓÇ£├óΓÇôΓÇ£├óΓÇôΓÇ£├óΓÇôΓÇ£├óΓÇôΓÇ£├óΓÇôΓÇ£├óΓÇôΓÇ£├óΓÇôΓÇ£├óΓÇôΓÇ£├óΓÇôΓÇ£├óΓÇôΓÇ£├óΓÇôΓÇ£├óΓÇôΓÇ£├óΓÇôΓÇ£├óΓÇôΓÇ£├óΓÇôΓÇ£├óΓÇôΓÇ£├óΓÇôΓÇ£├óΓÇôΓÇ£├óΓÇôΓÇ£├óΓÇôΓÇ£├óΓÇôΓÇ£├óΓÇôΓÇ£├óΓÇôΓÇ£├óΓÇôΓÇ£├óΓÇôΓÇ£├óΓÇôΓÇ£├óΓÇôΓÇ£├óΓÇôΓÇ£├óΓÇôΓÇ£├óΓÇôΓÇ£├óΓÇôΓÇ£├óΓÇôΓÇ£├óΓÇôΓÇ£├óΓÇôΓÇ£├óΓÇôΓÇ£├óΓÇôΓÇ£├óΓÇôΓÇ£├óΓÇôΓÇ£├óΓÇôΓÇ£├óΓÇôΓÇ£├óΓÇôΓÇ£├óΓÇôΓÇ£├óΓÇôΓÇ£├óΓÇôΓÇ£├óΓÇôΓÇ£├óΓÇôΓÇ£├óΓÇôΓÇ£├óΓÇôΓÇ£├óΓÇôΓÇ£
-=======----------=============------------------===============----------=========
 SEED AFTER DOWNLOAD
                           
  http://thepiratebay.org/user/HaUnTiNg.SuMMeR/
----------==========================------------------=======================-----